<?xml version="1.0" encoding="UTF-8" standalone="no"?>
<svg xmlns="http://www.w3.org/2000/svg" viewBox="0 0 500 500" width="500" height="500">
  <circle cx="250" cy="250" r="240" fill="none" stroke="#DAA520" stroke-width="12"/>
  <path d="M180,380 C140,330 130,280 150,230 C170,180 220,130 270,140 C330,150 380,220 390,270 C400,320 370,380 330,400" fill="none" stroke="#0A6E73" stroke-width="16" stroke-linejoin="round" stroke-linecap="round"/>
  <path d="M240,350 L240,250 L180,200" fill="none" stroke="#0A6E73" stroke-width="12" stroke-linejoin="round" stroke-linecap="round"/>
  <path d="M330,350 L330,250 L300,220" fill="none" stroke="#0A6E73" stroke-width="12" stroke-linejoin="round" stroke-linecap="round"/>
  <circle cx="200" cy="180" r="8" fill="#0A6E73"/>
  <path d="M310,260 L350,300 L320,330 L280,290 Z" fill="#DAA520" stroke="#DAA520" stroke-width="2"/>
  <path d="M330,200 L370,240 L340,270 L300,230 Z" fill="#DAA520" stroke="#DAA520" stroke-width="2"/>
  <path d="M220,150 L270,150 L270,200 L245,220 L220,200 Z" fill="#DAA520" stroke="#DAA520" stroke-width="2"/>
</svg>